<?xml version="1.0" standalone="no"?>
<!DOCTYPE svg PUBLIC "-//W3C//DTD SVG 20010904//EN"
 "http://www.w3.org/TR/2001/REC-SVG-20010904/DTD/svg10.dtd">
<svg version="1.0" xmlns="http://www.w3.org/2000/svg"
 width="1304.000000pt" height="1304.000000pt" viewBox="0 0 1304.000000 1304.000000"
 preserveAspectRatio="xMidYMid meet">
<metadata>
Created by potrace 1.11, written by Peter Selinger 2001-2013
</metadata>
<g transform="translate(0.000000,1304.000000) scale(0.100000,-0.100000)"
fill="#000000" stroke="none">
<path d="M10879 11864 c-14 -3 -41 -18 -60 -33 -29 -25 -34 -34 -33 -71 1 -36
8 -48 41 -79 47 -42 72 -81 142 -216 62 -120 96 -226 115 -361 19 -138 71
-254 112 -254 19 0 59 59 78 114 33 102 13 419 -40 622 -32 127 -67 203 -110
245 -33 32 -37 33 -127 35 -50 1 -104 0 -118 -2z"/>
<path d="M9942 10703 c-19 -7 -42 -58 -42 -93 0 -40 -17 -39 -25 3 -11 50 -34
87 -54 87 -26 0 -61 -42 -61 -73 0 -46 21 -84 171 -307 141 -210 389 -612 389
-630 0 -10 -188 -124 -405 -245 -295 -166 -678 -350 -820 -395 -22 -7 -77 -30
-122 -51 -46 -21 -83 -34 -83 -29 0 15 50 70 290 320 462 483 552 606 595 819
28 136 -11 258 -114 362 -81 80 -172 122 -271 123 -67 1 -83 -3 -150 -35 -88
-43 -122 -72 -118 -102 4 -25 26 -37 128 -67 190 -57 219 -78 241 -174 26
-116 -21 -265 -139 -447 -94 -143 -192 -258 -373 -434 -318 -311 -347 -343
-355 -397 -13 -80 105 -112 258 -69 100 28 490 223 888 444 133 73 521 295
562 321 9 5 19 8 21 6 2 -3 95 -158 207 -345 650 -1087 1050 -1697 1449 -2210
240 -309 504 -592 588 -629 58 -26 103 -16 143 32 34 41 38 62 13 62 -27 0
-143 68 -213 125 -36 29 -119 109 -185 177 -310 317 -624 732 -1020 1348 -303
470 -865 1451 -865 1508 0 23 39 34 75 20 134 -48 448 195 397 307 -14 30 -31
31 -83 4 -38 -19 -43 -19 -73 -5 -53 25 -107 5 -182 -69 -49 -48 -66 -73 -76
-108 -9 -37 -21 -53 -50 -72 l-38 -25 -49 98 c-111 221 -196 442 -271 702 -27
93 -78 150 -131 149 -19 0 -40 -3 -47 -6z"/>
<path d="M7923 10431 c-17 -11 -34 -29 -38 -41 -6 -18 -12 -20 -49 -15 -83 13
-92 -29 -45 -205 30 -112 36 -329 14 -495 -28 -214 -73 -376 -178 -645 -34
-90 -37 -106 -20 -129 23 -34 91 -21 146 27 13 12 20 13 29 4 20 -20 26 -14
38 39 8 34 29 71 62 112 81 102 290 327 303 327 9 0 6 -27 -11 -102 -55 -248
-143 -468 -360 -895 -120 -237 -141 -273 -156 -273 -5 0 -105 60 -221 134
-117 73 -222 138 -234 145 -30 15 -78 14 -112 -3 -36 -19 -90 -80 -107 -122
-8 -18 -18 -35 -24 -39 -5 -3 -10 -11 -10 -17 0 -7 5 -7 14 1 11 9 22 8 47 -3
19 -9 95 -41 169 -72 122 -50 347 -161 377 -186 15 -12 6 -32 -85 -178 -166
-266 -270 -412 -394 -552 -37 -42 -68 -80 -68 -85 0 -18 57 -63 87 -69 53 -10
116 27 167 99 42 59 256 420 365 615 30 52 59 92 67 92 13 0 133 -60 282 -142
44 -24 68 -30 150 -35 84 -5 100 -3 115 11 21 22 21 23 -6 70 -20 36 -41 49
-224 141 -111 56 -209 108 -218 115 -14 11 -12 18 11 59 14 25 127 231 251
456 124 226 270 486 325 579 128 215 138 237 138 311 0 67 -18 104 -66 136
-37 24 -65 24 -115 -1 -41 -21 -288 -261 -397 -384 -34 -39 -63 -68 -66 -65
-3 2 12 72 33 154 43 171 61 252 91 415 20 108 53 270 102 507 25 117 17 170
-28 200 -40 26 -113 28 -151 4z"/>
<path d="M765 9244 c-139 -30 -283 -120 -370 -232 -42 -54 -43 -62 -10 -62 37
0 92 25 133 61 98 87 268 125 512 115 80 -3 173 -12 208 -20 197 -49 334 -188
364 -370 25 -149 -24 -378 -116 -553 -165 -310 -498 -572 -683 -537 l-33 6 0
403 c0 330 -3 417 -16 481 -26 128 -73 197 -139 204 -49 5 -69 -3 -112 -44
-43 -42 -45 -47 -35 -73 7 -15 23 -84 36 -153 14 -69 35 -168 46 -220 29 -133
48 -237 65 -365 21 -158 21 -157 -21 -112 -20 21 -37 37 -39 35 -2 -2 15 -29
39 -61 l43 -57 12 -138 c25 -292 31 -855 25 -2572 -6 -1724 3 -2786 26 -3000
12 -114 36 -218 56 -245 13 -17 16 -18 30 -4 13 14 13 42 0 275 -51 876 -60
1314 -53 2679 6 1192 24 2764 33 2853 l6 53 36 -8 c20 -4 80 -8 132 -8 88 0
101 3 170 36 150 71 343 245 458 412 122 176 205 408 219 612 7 95 -20 220
-63 293 -82 139 -266 264 -454 307 -107 25 -409 30 -505 9z"/>
<path d="M9607 9066 c-93 -46 -127 -96 -127 -188 0 -29 14 -134 30 -232 34
-203 38 -336 15 -486 -22 -141 -20 -175 10 -198 34 -27 90 -15 127 28 l26 32
21 -21 c47 -47 57 -25 80 179 11 96 27 195 36 219 9 24 14 49 11 55 -2 6 -5 2
-7 -9 -3 -30 -17 91 -18 165 -1 36 9 116 21 178 l22 113 -24 44 c-13 24 -21
47 -17 51 9 10 -19 60 -45 78 -33 23 -105 19 -161 -8z"/>
<path d="M3004 9024 c-17 -8 -40 -32 -52 -53 -51 -91 -64 -212 -83 -801 -6
-201 -15 -374 -19 -385 -4 -11 -63 -54 -131 -96 -315 -191 -358 -217 -412
-241 -32 -14 -87 -51 -123 -82 -90 -80 -85 -115 14 -96 58 11 144 58 277 153
282 200 365 255 369 248 3 -4 1 -73 -4 -152 -25 -376 -31 -480 -36 -689 -7
-243 -1 -299 40 -380 25 -51 76 -90 116 -90 69 0 192 127 305 313 32 54 56 84
60 77 4 -7 8 -145 9 -308 1 -260 -1 -305 -17 -362 -24 -83 -41 -116 -72 -136
-32 -21 -65 -16 -355 59 -424 109 -633 114 -810 21 -138 -72 -206 -189 -198
-337 6 -123 75 -238 173 -290 31 -17 58 -22 120 -22 108 0 155 24 265 134 99
99 93 113 -24 55 l-76 -36 -47 24 c-83 43 -137 157 -119 251 10 51 64 110 134
144 54 26 65 28 187 27 170 0 299 -29 625 -141 115 -40 212 -52 276 -34 56 15
117 70 145 133 l24 53 0 445 1 445 37 120 c21 66 52 155 68 197 34 84 33 103
-6 118 -41 15 -82 1 -123 -44 l-39 -42 -11 43 c-18 65 -99 107 -132 68 -15
-18 -29 -189 -29 -371 -1 -121 -3 -135 -27 -180 -43 -80 -116 -184 -169 -241
-64 -67 -94 -71 -118 -15 -29 66 -47 163 -59 327 -10 136 -9 204 6 445 18 296
34 478 42 492 3 4 116 92 252 195 136 102 277 210 314 240 70 57 141 141 153
183 6 21 -2 17 -46 -26 -111 -105 -634 -504 -661 -504 -11 0 -6 48 23 250 38
264 139 666 185 738 l15 23 47 -39 c26 -21 101 -79 167 -127 66 -49 153 -116
193 -148 40 -33 74 -58 77 -56 2 3 -6 27 -19 54 -28 60 -99 128 -227 215 -52
35 -121 85 -154 110 -86 67 -132 94 -203 118 -73 26 -78 26 -118 6z"/>
<path d="M8933 8869 c-23 -11 -58 -38 -78 -60 -34 -38 -35 -41 -35 -122 0 -45
5 -111 10 -147 17 -116 64 -557 75 -705 3 -44 10 -129 15 -190 6 -60 15 -220
20 -355 17 -374 25 -410 97 -410 44 0 79 19 127 69 35 36 38 43 29 63 -30 61
-50 166 -80 419 -12 107 -17 227 -17 464 0 329 14 502 59 716 24 112 20 151
-17 200 -60 77 -128 97 -205 58z"/>
<path d="M9891 8644 c0 -11 3 -14 6 -6 3 7 2 16 -1 19 -3 4 -6 -2 -5 -13z"/>
<path d="M9861 8534 c0 -11 3 -14 6 -6 3 7 2 16 -1 19 -3 4 -6 -2 -5 -13z"/>
<path d="M12360 8143 c0 -6 22 -55 50 -110 27 -54 50 -104 50 -110 0 -7 4 -13
9 -13 6 0 4 15 -4 33 -26 62 -105 212 -105 200z"/>
<path d="M9778 7904 c-20 -14 -59 -54 -87 -89 -42 -52 -59 -85 -90 -177 -43
-125 -90 -243 -146 -362 -64 -139 -114 -272 -225 -605 -59 -179 -127 -378
-149 -441 -22 -63 -41 -129 -41 -146 0 -43 30 -68 71 -60 47 9 118 66 119 94
1 125 96 388 330 917 10 22 37 94 60 160 39 111 136 322 210 457 26 47 32 71
37 145 9 133 -14 160 -89 107z"/>
<path d="M12481 7890 c0 -8 4 -24 9 -35 5 -13 9 -14 9 -5 0 8 -4 24 -9 35 -5
13 -9 14 -9 5z"/>
<path d="M12521 7784 c0 -11 3 -14 6 -6 3 7 2 16 -1 19 -3 4 -6 -2 -5 -13z"/>
<path d="M12551 7714 c0 -11 3 -14 6 -6 3 7 2 16 -1 19 -3 4 -6 -2 -5 -13z"/>
<path d="M10173 7416 c-109 -35 -197 -127 -384 -406 -46 -69 -104 -158 -129
-198 -25 -40 -60 -97 -79 -125 -147 -227 -311 -494 -322 -526 -18 -51 48 38
129 174 42 72 128 213 191 315 62 102 128 208 145 235 123 200 327 452 359
443 19 -6 83 -145 108 -233 93 -340 86 -800 -16 -1122 -14 -46 -29 -83 -32
-83 -3 0 -12 8 -19 18 -12 15 -13 14 -14 -15 0 -25 4 -33 18 -33 9 0 31 -22
50 -50 19 -29 47 -57 67 -67 31 -15 36 -15 60 1 34 22 81 123 100 216 27 127
57 550 58 810 3 472 -34 615 -166 649 -56 14 -71 13 -124 -3z"/>
<path d="M9357 7363 c-4 -3 -7 -11 -7 -17 0 -6 5 -5 12 2 6 6 9 14 7 17 -3 3
-9 2 -12 -2z"/>
<path d="M9331 7298 c-8 -18 -33 -73 -56 -123 -51 -109 -57 -125 -46 -125 13
0 125 254 119 271 -2 5 -9 -6 -17 -23z"/>
<path d="M9875 7003 c-34 -9 -84 -53 -105 -92 -10 -21 -29 -98 -40 -172 -27
-168 -58 -297 -110 -469 -44 -142 -141 -398 -167 -437 -19 -28 -33 -29 -130
-2 -66 18 -97 21 -206 17 -100 -4 -132 -8 -144 -21 -23 -23 -8 -37 78 -77 54
-25 98 -36 187 -47 64 -8 121 -19 126 -23 21 -21 -171 -275 -311 -411 -143
-139 -235 -197 -363 -225 -64 -15 -76 -15 -142 0 -126 28 -242 100 -314 195
-43 55 -44 34 -2 -39 77 -135 243 -247 409 -276 164 -28 306 22 491 172 111
91 264 280 381 472 29 48 57 82 66 82 9 0 45 -7 81 -16 89 -21 339 -67 615
-114 337 -56 515 -94 755 -162 150 -42 438 -131 550 -170 166 -58 187 -63 216
-50 29 14 31 42 7 83 -9 15 -14 31 -10 35 3 3 40 -12 81 -34 76 -41 93 -44 75
-11 -15 29 -44 40 -174 70 -66 15 -212 50 -325 78 -113 29 -275 67 -360 86
-199 44 -401 90 -670 153 -350 82 -526 119 -693 146 -49 8 -92 17 -95 21 -3 3
-1 18 5 33 56 138 169 421 208 522 73 190 92 234 161 374 71 144 85 202 60
241 -20 31 -44 32 -55 3 -9 -23 -9 -23 -20 4 -22 57 -56 75 -116 61z"/>
<path d="M4065 6813 c-97 -13 -185 -56 -185 -91 0 -37 54 -79 116 -92 32 -7
79 -20 104 -30 25 -10 88 -23 140 -29 52 -7 122 -17 155 -22 69 -12 225 -57
225 -66 0 -14 -107 -131 -285 -313 -236 -241 -299 -331 -225 -322 36 4 138 58
218 116 39 28 133 96 209 152 76 55 179 125 228 154 205 124 257 189 226 283
-18 55 -48 75 -126 86 -127 18 -218 41 -385 97 -112 38 -198 60 -270 69 -58 8
-107 14 -110 13 -3 0 -18 -3 -35 -5z"/>
<path d="M8306 5670 c-45 -48 -106 -158 -106 -190 0 -8 13 4 28 27 15 22 53
77 85 121 31 44 57 83 57 86 0 16 -22 1 -64 -44z"/>
</g>
</svg>
